<svg width="1100" height="661" viewBox="0 0 1100 661" fill="none" xmlns="http://www.w3.org/2000/svg">
<rect width="1100" height="661" fill="#DBEAFE"/>
<path d="M0 0.881332H184.255V661H0V0.881332Z" fill="#BFDBFE"/>
<path d="M22.1104 63.456C22.1104 57.615 27.06 52.88 33.1656 52.88H151.089C157.194 52.88 162.144 57.615 162.144 63.456V63.456C162.144 69.297 157.194 74.032 151.089 74.032H33.1656C27.06 74.032 22.1104 69.297 22.1104 63.456V63.456Z" fill="#93C5FD"/>
<path d="M66.3315 137.488C66.3315 134.568 68.8064 132.2 71.8592 132.2H163.986C167.039 132.2 169.514 134.568 169.514 137.488V137.488C169.514 140.408 167.039 142.776 163.986 142.776H71.8592C68.8063 142.776 66.3315 140.408 66.3315 137.488V137.488Z" fill="white"/>
<path d="M66.3315 193.893C66.3315 190.973 68.8064 188.605 71.8592 188.605H135.427C138.48 188.605 140.955 190.973 140.955 193.893V193.893C140.955 196.814 138.48 199.181 135.427 199.181H71.8592C68.8064 199.181 66.3315 196.814 66.3315 193.893V193.893Z" fill="white"/>
<path d="M66.3315 250.299C66.3315 247.378 68.8064 245.011 71.8592 245.011H151.089C154.141 245.011 156.616 247.378 156.616 250.299V250.299C156.616 253.219 154.141 255.587 151.089 255.587H71.8592C68.8063 255.587 66.3315 253.219 66.3315 250.299V250.299Z" fill="white"/>
<path fill-rule="evenodd" clip-rule="evenodd" d="M36.8507 148.945C43.4652 148.945 48.8273 143.816 48.8273 137.488C48.8273 131.16 43.4652 126.031 36.8507 126.031C30.2363 126.031 24.8742 131.16 24.8742 137.488C24.8742 143.816 30.2363 148.945 36.8507 148.945ZM36.8507 151.589C44.9916 151.589 51.5911 145.276 51.5911 137.488C51.5911 129.7 44.9916 123.387 36.8507 123.387C28.7098 123.387 22.1104 129.7 22.1104 137.488C22.1104 145.276 28.7098 151.589 36.8507 151.589Z" fill="#93C5FD"/>
<path d="M243.216 63.456C243.216 59.562 246.516 56.4053 250.586 56.4053H357.454C361.525 56.4053 364.824 59.562 364.824 63.456V63.456C364.824 67.35 361.525 70.5067 357.454 70.5067H250.586C246.516 70.5067 243.216 67.35 243.216 63.456V63.456Z" fill="#BFDBFE"/>
<path fill-rule="evenodd" clip-rule="evenodd" d="M438.987 347.739C439.041 342.712 443.216 338.432 448.581 338.432C451.874 338.432 454.297 339.991 455.843 341.46C456.273 341.869 456.643 342.276 456.952 342.653C457.261 342.276 457.631 341.869 458.061 341.46C459.607 339.991 462.03 338.432 465.323 338.432C470.688 338.432 474.863 342.712 474.917 347.739L474.917 347.74C475.019 357.544 466.784 364.327 458.507 369.702C458.048 370.001 457.507 370.16 456.952 370.16C456.398 370.16 455.856 370.001 455.397 369.702C447.119 364.327 438.884 357.544 438.987 347.74L438.987 347.739ZM458.186 345.636C457.952 346.082 457.474 346.364 456.952 346.364C456.43 346.364 455.952 346.082 455.718 345.636C455.717 345.636 455.717 345.635 455.716 345.633C455.714 345.63 455.712 345.625 455.708 345.618C455.706 345.614 455.703 345.61 455.701 345.605C455.685 345.577 455.659 345.532 455.623 345.472C455.551 345.351 455.438 345.17 455.284 344.951C454.975 344.51 454.512 343.921 453.896 343.336C452.658 342.16 450.895 341.076 448.581 341.076C444.833 341.076 441.791 344.09 441.751 347.766M458.186 345.636C458.187 345.636 458.187 345.635 458.188 345.633C458.191 345.629 458.196 345.619 458.204 345.605C458.219 345.577 458.245 345.532 458.281 345.472C458.353 345.351 458.466 345.17 458.62 344.951C458.929 344.51 459.393 343.921 460.008 343.336C461.246 342.16 463.009 341.076 465.323 341.076C469.071 341.076 472.114 344.089 472.153 347.766C472.239 356.028 465.303 362.093 456.953 367.515L456.952 367.516L456.951 367.515C448.6 362.093 441.664 356.028 441.751 347.766" fill="white"/>
<path d="M243.216 354.296C243.216 350.402 246.516 347.245 250.586 347.245H300.335C304.406 347.245 307.705 350.402 307.705 354.296V354.296C307.705 358.19 304.406 361.347 300.335 361.347H250.586C246.516 361.347 243.216 358.19 243.216 354.296V354.296Z" fill="#BFDBFE"/>
<path d="M322.446 354.296C322.446 350.402 325.746 347.245 329.816 347.245H412.731C416.801 347.245 420.101 350.402 420.101 354.296V354.296C420.101 358.19 416.801 361.347 412.731 361.347H329.816C325.746 361.347 322.446 358.19 322.446 354.296V354.296Z" fill="#BFDBFE"/>
<path d="M243.216 423.04C243.216 420.12 245.691 417.752 248.744 417.752H326.131C329.184 417.752 331.659 420.12 331.659 423.04V423.04C331.659 425.96 329.184 428.328 326.131 428.328H248.744C245.691 428.328 243.216 425.96 243.216 423.04V423.04Z" fill="white"/>
<path d="M243.216 447.717C243.216 444.797 245.691 442.429 248.744 442.429H367.588C370.641 442.429 373.116 444.797 373.116 447.717V447.717C373.116 450.638 370.641 453.005 367.588 453.005H248.744C245.691 453.005 243.216 450.638 243.216 447.717V447.717Z" fill="white"/>
<path d="M346.399 423.04C346.399 420.12 348.874 417.752 351.927 417.752H444.054C447.107 417.752 449.582 420.12 449.582 423.04V423.04C449.582 425.96 447.107 428.328 444.054 428.328H351.927C348.874 428.328 346.399 425.96 346.399 423.04V423.04Z" fill="white"/>
<path d="M243.216 132.2C243.216 129.28 245.691 126.912 248.744 126.912H326.131C329.184 126.912 331.659 129.28 331.659 132.2V132.2C331.659 135.12 329.184 137.488 326.131 137.488H248.744C245.691 137.488 243.216 135.12 243.216 132.2V132.2Z" fill="white"/>
<path d="M243.216 156.877C243.216 153.957 245.691 151.589 248.744 151.589H439.447C442.5 151.589 444.975 153.957 444.975 156.877V156.877C444.975 159.798 442.5 162.165 439.447 162.165H248.744C245.691 162.165 243.216 159.798 243.216 156.877V156.877Z" fill="white"/>
<path d="M346.399 132.2C346.399 129.28 348.874 126.912 351.927 126.912H561.977C565.03 126.912 567.504 129.28 567.504 132.2V132.2C567.504 135.12 565.03 137.488 561.977 137.488H351.927C348.874 137.488 346.399 135.12 346.399 132.2V132.2Z" fill="white"/>
<path fill-rule="evenodd" clip-rule="evenodd" d="M49.7487 182.436H25.7956V205.351H49.7487V182.436ZM23.0317 179.792V207.995H52.5125V179.792H23.0317Z" fill="#60A5FA"/>
<g clip-path="url(#clip0_806_13994)">
<rect x="638.442" y="63.456" width="184.255" height="241.485" rx="20" fill="white"/>
<path d="M761.18 305.15C761.18 366.257 709.826 415.794 646.479 415.794C583.131 415.794 531.778 366.257 531.778 305.15C531.778 244.043 583.131 194.506 646.479 194.506C709.826 194.506 761.18 244.043 761.18 305.15Z" fill="#FACC15"/>
<path fill-rule="evenodd" clip-rule="evenodd" d="M848.276 157.504L788.343 100.17L728.411 157.504L788.343 214.838L848.276 157.504ZM788.343 95.184L723.199 157.504L788.343 219.823L853.487 157.504L788.343 95.184Z" fill="#BFDBFE"/>
</g>
<path d="M37.7721 237.96L52.5125 262.384H23.0317L37.7721 237.96Z" fill="#93C5FD"/>
<rect x="852.178" y="63.456" width="184.255" height="178.029" rx="20" fill="white"/>
<path fill-rule="evenodd" clip-rule="evenodd" d="M935.063 196.2C953.433 196.2 968.199 182.085 968.199 164.821C968.199 147.558 953.433 133.443 935.063 133.443C916.693 133.443 901.927 147.558 901.927 164.821C901.927 182.085 916.693 196.2 935.063 196.2ZM935.063 205.013C958.451 205.013 977.412 187.018 977.412 164.821C977.412 142.624 958.451 124.63 935.063 124.63C911.674 124.63 892.714 142.624 892.714 164.821C892.714 187.018 911.674 205.013 935.063 205.013Z" fill="#BFDBFE"/>
<path d="M954.31 152.1L966.493 108.602L999.779 140.444L954.31 152.1Z" fill="#FACC15"/>
<g clip-path="url(#clip1_806_13994)">
<rect x="638.442" y="333.144" width="184.255" height="269.688" rx="20" fill="white"/>
<path fill-rule="evenodd" clip-rule="evenodd" d="M811.181 637.204C862.825 637.204 904.69 597.153 904.69 547.749C904.69 498.344 862.825 458.293 811.181 458.293C759.537 458.293 717.672 498.344 717.672 547.749C717.672 597.153 759.537 637.204 811.181 637.204ZM811.181 646.017C867.913 646.017 913.903 602.021 913.903 547.749C913.903 493.476 867.913 449.48 811.181 449.48C754.449 449.48 708.459 493.476 708.459 547.749C708.459 602.021 754.449 646.017 811.181 646.017Z" fill="#FACC15"/>
<path d="M735.176 413.545C735.176 430.204 720.946 443.71 703.392 443.71C685.839 443.71 671.608 430.204 671.608 413.545C671.608 396.885 685.839 383.38 703.392 383.38C720.946 383.38 735.176 396.885 735.176 413.545Z" fill="#BFDBFE"/>
<path fill-rule="evenodd" clip-rule="evenodd" d="M703.392 441.066C719.44 441.066 732.412 428.724 732.412 413.545C732.412 398.365 719.44 386.024 703.392 386.024C687.344 386.024 674.372 398.365 674.372 413.545C674.372 428.724 687.344 441.066 703.392 441.066ZM703.392 443.71C720.946 443.71 735.176 430.204 735.176 413.545C735.176 396.885 720.946 383.38 703.392 383.38C685.839 383.38 671.608 396.885 671.608 413.545C671.608 430.204 685.839 443.71 703.392 443.71Z" fill="#BFDBFE"/>
</g>
<g clip-path="url(#clip2_806_13994)">
<rect x="852.178" y="269.688" width="184.255" height="301.416" rx="20" fill="white"/>
<path d="M1078.81 486.937C1078.81 508.597 1060.66 526.156 1038.27 526.156C1015.89 526.156 997.739 508.597 997.739 486.937C997.739 465.276 1015.89 447.717 1038.27 447.717C1060.66 447.717 1078.81 465.276 1078.81 486.937Z" fill="white"/>
<path fill-rule="evenodd" clip-rule="evenodd" d="M1038.27 523.512C1059.11 523.512 1076.05 507.165 1076.05 486.937C1076.05 466.708 1059.11 450.361 1038.27 450.361C1017.44 450.361 1000.5 466.708 1000.5 486.937C1000.5 507.165 1017.44 523.512 1038.27 523.512ZM1038.27 526.156C1060.66 526.156 1078.81 508.597 1078.81 486.937C1078.81 465.276 1060.66 447.717 1038.27 447.717C1015.89 447.717 997.739 465.276 997.739 486.937C997.739 508.597 1015.89 526.156 1038.27 526.156Z" fill="#BFDBFE"/>
<path d="M1005.11 375.889C1005.11 404.85 980.774 428.328 950.754 428.328C920.735 428.328 896.399 404.85 896.399 375.889C896.399 346.927 920.735 323.449 950.754 323.449C980.774 323.449 1005.11 346.927 1005.11 375.889Z" fill="#BFDBFE"/>
<path d="M886.265 476.801L888.864 483.955L896.779 484.109L890.47 488.685L892.763 495.933L886.265 491.608L879.767 495.933L882.059 488.685L875.75 484.109L883.665 483.955L886.265 476.801Z" fill="#FACC15"/>
<path d="M924.037 476.801L926.636 483.955L934.551 484.109L928.243 488.685L930.535 495.933L924.037 491.608L917.539 495.933L919.831 488.685L913.523 484.109L921.438 483.955L924.037 476.801Z" fill="#FACC15"/>
<path d="M961.809 476.801L964.408 483.955L972.323 484.109L966.015 488.685L968.307 495.933L961.809 491.608L955.311 495.933L957.603 488.685L951.295 484.109L959.21 483.955L961.809 476.801Z" fill="#FACC15"/>
<path d="M999.581 476.801L1002.18 483.955L1010.1 484.109L1003.79 488.685L1006.08 495.933L999.581 491.608L993.083 495.933L995.375 488.685L989.067 484.109L996.982 483.955L999.581 476.801Z" fill="#FACC15"/>
<path d="M1037.35 476.801L1039.95 483.955L1047.87 484.109L1041.56 488.685L1043.85 495.933L1037.35 491.608L1030.86 495.933L1033.15 488.685L1026.84 484.109L1034.75 483.955L1037.35 476.801Z" fill="#FACC15"/>
</g>
<defs>
<clipPath id="clip0_806_13994">
<rect x="638.442" y="63.456" width="184.255" height="241.485" rx="20" fill="white"/>
</clipPath>
<clipPath id="clip1_806_13994">
<rect x="638.442" y="333.144" width="184.255" height="269.688" rx="20" fill="white"/>
</clipPath>
<clipPath id="clip2_806_13994">
<rect x="852.178" y="269.688" width="184.255" height="301.416" rx="20" fill="white"/>
</clipPath>
</defs>
</svg>
